<svg xmlns="http://www.w3.org/2000/svg" fill="currentColor" viewBox="0 0 251 274.4"><path d="M213.7 153c-12.8-29.1-6.2-61.6-29-91.8-19.4-25.8-59.3-36.9-59.3-36.9S85.6 35.4 66.1 61.2c-22.8 30.2-16.2 62.7-29 91.8-12.6 29.1-40.9 54.1-36 72s44.6 35.8 62 40.7 62.5 8.6 62.5 8.6 45.1-3.7 62.5-8.6 57.1-22.8 62-40.7-23.5-42.9-36.2-72Zm-6.2 75c-14.2 5-45.7-8.1-65.3-17.5s-22.9-5.1-33.5 0c-19.6 9.3-51.1 22.4-65.3 17.5-21.4-7.5-3.8-25 2.4-34.3s16.2-50.4 20.4-66.4c4.1-16 9-17.3 27.6-32.9 10.7-9 19.5-5.3 25.1-.4s9.3 3.3 13.1 0c5.6-4.8 14.4-8.5 25.1.4 18.6 15.7 23.5 16.9 27.6 32.9 4.1 16 14.1 57.1 20.4 66.4 6.2 9.3 23.8 26.9 2.4 34.3Z" class="cls-1"/><path d="M173.5 113.7c-6.2-9-22.2-15.2-29.3-18.3s-18.7 7.5-18.7 7.5-11.7-10.6-18.7-7.5-23.1 9.2-29.3 18.3c-6.2 9-1.8 26.6 3.1 37.4s11.9 19.6 13.9 25.1 9 22.9 11.4 26 36.8 3.1 39.2 0 9.5-20.5 11.4-26c2-5.5 9-14.3 13.9-25.1s9.2-28.4 3.1-37.4Zm-55.3 21.9c-.7 2.5-6.8 3-13.6 1.1s-11.7-5.5-11-8c.7-2.5 6.8-3 13.6-1.1s11.7 5.5 11 8Zm28.2 1.2c-6.8 1.9-12.9 1.4-13.6-1.1s4.2-6.1 11-8 12.9-1.4 13.6 1.1c.7 2.5-4.2 6.1-11 8Z" class="cls-1"/></svg>