<svg xmlns="http://www.w3.org/2000/svg" viewBox="0 0 251.03 128" fill="currentColor"><circle cx="125.52" cy="64" r="10" /><path d="M99.36 74c-2.38-2.66-3.84-6.15-3.84-10s1.46-7.34 3.84-10H27.52L73.4 8.12c3-3 .87-8.12-3.36-8.12h-6.55c-1.26 0-2.47.5-3.36 1.39L1.76 59.76a6 6 0 0 0 0 8.48l58.37 58.37c.89.89 2.1 1.39 3.36 1.39h6.55c4.24 0 6.36-5.12 3.36-8.12L27.52 74h71.84ZM187.55 0H181c-4.24 0-6.36 5.12-3.36 8.12L223.52 54h-71.84c2.38 2.66 3.84 6.15 3.84 10s-1.46 7.34-3.84 10h71.84l-45.88 45.88c-3 3-.87 8.12 3.36 8.12h6.55c1.26 0 2.47-.5 3.36-1.39l58.37-58.37a6 6 0 0 0 0-8.48L190.91 1.39C190.02.5 188.81 0 187.55 0Z" /></svg>