<svg xmlns="http://www.w3.org/2000/svg" viewBox="0 0 251.03 128" fill="currentColor"><circle cx="125.52" cy="64" r="10" class="cls-1"/><path d="M.17 54v20h77.84l-45.88 45.88c-3 3-.87 8.12 3.36 8.12h6.55c1.26 0 2.47-.5 3.36-1.39l58.37-58.37a6 6 0 0 0 0-8.48L45.41 1.39C44.51.5 43.3 0 42.04 0h-6.55c-4.23 0-6.35 5.12-3.36 8.12L78.01 54H.17ZM208.99 128h6.55c4.24 0 6.36-5.12 3.36-8.12L173.02 74h77.84V54h-77.84L218.9 8.12c3-3 .87-8.12-3.36-8.12h-6.55c-1.26 0-2.47.5-3.36 1.39l-58.37 58.37a6 6 0 0 0 0 8.48l58.37 58.37c.89.89 2.1 1.39 3.36 1.39Z" class="cls-1"/></svg>