<svg xmlns="http://www.w3.org/2000/svg" fill="currentColor" viewBox="0 0 251 250.1"><path d="m142.6 98.1 55.5-55.6 21.6-11.7L208 52.4l-56.2 56.2 10.3 11.8 60.8-53.2 20.3-59.9-59.9 20.4-51.1 58.5 10.4 11.9zM88.6 184.6l29.3-25.6-8.8-7.7-26.9 26.9-9.9-9.9L98.6 142l-8.6-7.6-24 27.4-7.8-7.8c-1.2-1.2-3.1-1.2-4.2 0l-6.4 6.4c-1.2 1.2-1.2 3.1 0 4.2l12 12-2.3 2.3L69.4 191l-3.5 3.5-12.1-12.1-3.5 3.5L62.4 198l-3.5 3.5-12.1-12.1-3.5 3.5L55.4 205l-3.5 3.5-12.1-12.1-3.5 3.5L48.4 212l-3.5 3.5-12.1-12.1-3.5 3.5L41.4 219l-3.5 3.5-12.1-12.1-1.3 1.3-4.9-4.9c-1.2-1.2-3.1-1.2-4.2 0L9 213.2c-1.2 1.2-1.2 3.1 0 4.2l24 24c1.2 1.2 3.1 1.2 4.2 0l6.4-6.4c1.2-1.2 1.2-3.1 0-4.2l-4.9-4.9 35.4-35.4 12 12c1.2 1.2 3.1 1.2 4.2 0l6.4-6.4c1.2-1.2 1.2-3.1 0-4.2l-7.8-7.8Z" class="cls-1"/><path d="m154.7 196.6 6.4 6.4c1.2 1.2 3.1 1.2 4.2 0l12-12 35.4 35.4-4.9 4.9c-1.2 1.2-1.2 3.1 0 4.2l6.4 6.4c1.2 1.2 3.1 1.2 4.2 0l24-24c1.2-1.2 1.2-3.1 0-4.2l-6.4-6.4c-1.2-1.2-3.1-1.2-4.2 0l-4.9 4.9-1.3-1.3-12.1 12.1-3.5-3.5 12.1-12.1-3.5-3.5-12.1 12.1-3.5-3.5 12.1-12.1-3.5-3.5-12.1 12.1-3.5-3.5 12.1-12.1-3.5-3.5-12.1 12.1-3.5-3.5 12.1-12.1-3.5-3.5-12.1 12.1-3.5-3.5 12.1-12.1-2.3-2.3 12-12c1.2-1.2 1.2-3.1 0-4.2l-6.4-6.4c-1.2-1.2-3.1-1.2-4.2 0l-7.8 7.8L67.8 27.7 7.8 7.3l20.4 60 134.3 117.3-7.8 7.8c-1.2 1.2-1.2 3.1 0 4.2Zm24-28.3-9.9 9.9L43 52.4 31.3 30.8l21.6 11.7 125.8 125.8Z" class="cls-1"/></svg>