<svg xmlns="http://www.w3.org/2000/svg" fill="currentColor" viewBox="0 0 251 250.1"><path d="M246.3 189c-13.8-27.8-92.3-89.6-97.6-108.3-5.2-18.6 24.9-52.4 24.6-62.9-.4-10.5-24.9-19.5-35.4-17.5-10.4 2-23.8 14.7-23.8 14.7-10.1.4-20.5-18.3-32-14.1-11.5 4.2-35.7 13-22.3 28.5s28.7 39.7 28.7 46.4-30.9 55.2-46.2 68.5C27 157.7-.9 191.8.6 206.9c1.5 15.1 6.3 35.2 68.9 40.4 62.6 5.3 137.4 1.4 152.3 0 14.9-1.4 38.4-30.6 24.6-58.3ZM98.5 71h38c3.3 0 6 2.7 6 6s-2.7 6-6 6h-38c-3.3 0-6-2.7-6-6s2.7-6 6-6Zm72.1 77.4-84 84h-14l84-84h-28v14h-14v-14h-14v14h-14v-14h-14v-14h14v-14h14v14h14v-14h14v14h42v14Z" class="cls-1"/></svg>