<svg xmlns="http://www.w3.org/2000/svg" fill="currentColor" viewBox="0 0 251 250.1"><path d="M14.6 206.6c.9-1.6 1.9-3.2 3.1-4.6l38.6 38.6c1.4-1.2 2.6-2.5 3.8-3.9l-38.5-38.5c.9-.7 1.9-1.4 3-2.1l1.7-1 37.1 37.1c.1-.2.3-.4.4-.6l2.5-4.2-35.2-35.2 4.8-2.9 33.3 33.3 2.9-4.8-31.4-31.4 4.8-2.9L75 213l33.9-56.2c34.4 26.9 84.2 24.5 115.8-7.1 34.2-34.2 34.2-89.7 0-123.9s-89.7-34.2-123.9 0c-31.6 31.6-34 81.4-7.1 115.8l-74.9 45.2C7.3 193.8.1 206.5.5 219.6 1 236.5 14 249.4 30.9 250c7.4.2 14.8-2 21-6.1l-37.3-37.3ZM116.4 41.1c25.7-25.7 67.3-25.7 92.9 0 25.7 25.7 25.7 67.3 0 92.9-25.7 25.7-67.3 25.7-92.9 0-25.7-25.7-25.7-67.3 0-92.9Z" class="cls-1"/></svg>