<svg xmlns="http://www.w3.org/2000/svg" fill="currentColor" viewBox="0 0 251 250.1"><path d="M193.9 165.7c-1.1-3.7-13.8 2.3-16.5 5.8-2.7 3.5-4.3 26.5-11.5 30s-40.4 1.9-40.4 1.9-33.1 1.6-40.4-1.9c-7.3-3.5-8.9-26.5-11.5-30s-15.4-9.5-16.5-5.8 3.7 26.2 2.8 33.7c-.9 7.5 3.7 24.8 12.1 33 8.3 8.3 19 14.6 25.7 16 6.7 1.4 27.8 1.6 27.8 1.6s21.1-.2 27.8-1.6c6.7-1.4 17.4-7.7 25.7-16s12.9-25.5 12.1-33c-.9-7.5 3.9-30 2.8-33.7Z" class="cls-1"/><path d="M215.5 93.4c0-24.6-4.6-43.2-21.6-67.4-17-24.2-68.4-26-68.4-26S74.2 1.8 57.1 26c-17 24.2-21.6 42.8-21.6 67.4s-.7 54.1 16.7 61.8c17.4 7.7 31.2 8.1 31.9 20 .7 11.9-2.1 16.5 4.6 18.6 6.7 2.1 36.8 2.1 36.8 2.1s30.1 0 36.8-2.1c6.7-2.1 3.9-6.7 4.6-18.6.7-11.9 14.5-12.3 31.9-20 17.4-7.7 16.7-37.2 16.7-61.8Zm-114.2 22.3c-4.4 6.7-23.9 13.5-34 13.3-10.1-.2-12.6-9-14.4-16-1.8-7 .5-15.6 9.2-22.5s23.9-7 30.3-5.6 6.9 6.7 8.9 10.5c1.9 3.9 4.4 13.5 0 20.2Zm44.9 37c-1.2 2.3-5.9 7-9.9 4s-4.3-5.3-6.3-5.3-4.5.4-4.5.4-2.6-.4-4.5-.4-2.3 2.3-6.3 5.3-8.6-1.8-9.9-4c-1.2-2.3-2.7-19.1 6-33.9 8.7-14.7 14.6-12.8 14.6-12.8s5.9-1.9 14.6 12.8c8.7 14.7 7.3 31.6 6 33.9Zm51.9-39.6c-1.8 7-4.3 15.8-14.4 16-10.1.2-29.6-6.7-34-13.3-4.4-6.7-1.9-16.3 0-20.2 1.9-3.9 2.4-9.2 8.9-10.5s21.6-1.2 30.3 5.6 11 15.4 9.2 22.5Z" class="cls-1"/></svg>