<svg xmlns="http://www.w3.org/2000/svg" fill="currentColor" viewBox="0 0 251 250.1"><path d="M247 171.3h-8.3c-1.6 0-3.1-1.1-3.4-2.7-.4-2-1-4-1.6-6-.5-1.6.2-3.3 1.6-4.1l7.2-4.1c1.7-1 2.2-3.1 1.3-4.8l-5.3-9.1c-1-1.7-3.1-2.2-4.8-1.3l-7.2 4.2c-1.4.8-3.2.5-4.3-.7-1.4-1.5-2.8-3-4.4-4.4-1.2-1.1-1.5-2.9-.7-4.3l4.2-7.2c1-1.7.4-3.8-1.3-4.8l-6.1-3.5c-1.5 9.2-4 18-7.6 26.3 10.8 8 17.8 20.8 17.8 35.2 0 24.2-19.6 43.8-43.8 43.8s-27.2-7-35.2-17.8c-8.3 3.5-17.1 6.1-26.3 7.6l3.5 6.1c1 1.7 3.1 2.2 4.8 1.3l7.2-4.2c1.4-.8 3.2-.5 4.3.7 1.4 1.5 2.8 3 4.4 4.4 1.2 1.1 1.5 2.9.7 4.3l-4.2 7.2c-1 1.7-.4 3.8 1.3 4.8l9.1 5.3c1.7 1 3.8.4 4.8-1.3l4.1-7.2c.8-1.4 2.5-2.1 4.1-1.6 1.9.6 3.9 1.2 6 1.6 1.6.3 2.7 1.8 2.7 3.4v8.3c0 1.9 1.6 3.5 3.5 3.5h10.5c1.9 0 3.5-1.6 3.5-3.5v-8.3c0-1.6 1.1-3.1 2.7-3.4 2-.4 4-1 6-1.6 1.6-.5 3.3.2 4.1 1.6l4.1 7.2c1 1.7 3.1 2.2 4.8 1.3l9.1-5.3c1.7-1 2.2-3.1 1.3-4.8l-4.2-7.2c-.8-1.4-.5-3.2.7-4.3 1.5-1.4 3-2.8 4.4-4.4 1.1-1.2 2.9-1.5 4.3-.7l7.2 4.2c1.7 1 3.8.4 4.8-1.3l5.3-9.1c1-1.7.4-3.8-1.3-4.8l-7.2-4.1c-1.4-.8-2.1-2.5-1.6-4.1.6-1.9 1.2-3.9 1.6-6 .3-1.6 1.8-2.7 3.4-2.7h8.3c1.9 0 3.5-1.6 3.5-3.5v-10.5c0-1.9-1.6-3.5-3.5-3.5Z" class="cls-1"/><path d="M195.5 87.5h-11.9c-2.3 0-4.4-1.6-4.9-3.9-.6-2.9-1.4-5.7-2.3-8.5-.7-2.2.2-4.7 2.2-5.8l10.3-5.9c2.4-1.4 3.2-4.4 1.8-6.8l-7.5-13c-1.4-2.4-4.4-3.2-6.8-1.8l-10.3 5.9c-2 1.2-4.6.8-6.2-1-2-2.2-4-4.3-6.2-6.2-1.7-1.6-2.1-4.1-1-6.2l5.9-10.3c1.4-2.4.6-5.4-1.8-6.8l-13-7.5c-2.4-1.4-5.4-.6-6.8 1.8l-5.9 10.3c-1.2 2-3.6 3-5.8 2.2-2.8-.9-5.6-1.7-8.5-2.3-2.3-.5-3.9-2.5-3.9-4.9V5c.1-2.8-2.1-5-4.9-5H93c-2.8 0-5 2.2-5 5v11.9c0 2.3-1.6 4.4-3.9 4.9-2.9.6-5.7 1.4-8.5 2.3-2.2.7-4.7-.2-5.8-2.2l-5.9-10.3c-1.4-2.4-4.4-3.2-6.8-1.8l-13 7.5c-2.4 1.4-3.2 4.4-1.8 6.8l5.9 10.3c1.2 2 .8 4.6-1 6.2-2.2 2-4.3 4-6.2 6.2-1.6 1.7-4.1 2.1-6.2 1l-10.3-5.9c-2.4-1.4-5.4-.6-6.8 1.8l-7.5 13c-1.4 2.4-.6 5.4 1.8 6.8l10.3 5.9c2 1.2 3 3.6 2.2 5.8-.9 2.8-1.7 5.6-2.3 8.5-.5 2.3-2.5 3.9-4.9 3.9H5.5c-2.7 0-5 2.2-5 5v15c0 2.7 2.2 5 5 5h11.9c2.3 0 4.4 1.6 4.9 3.9.6 2.9 1.4 5.7 2.3 8.5.7 2.2-.2 4.7-2.2 5.8l-10.3 5.9c-2.4 1.4-3.2 4.4-1.8 6.8l7.5 13c1.4 2.4 4.4 3.2 6.8 1.8l10.3-5.9c2-1.2 4.6-.8 6.2 1 2 2.2 4 4.3 6.2 6.2 1.7 1.6 2.1 4.1 1 6.2l-5.9 10.3c-1.4 2.4-.6 5.4 1.8 6.8l13 7.5c2.4 1.4 5.4.6 6.8-1.8l5.9-10.3c1.2-2 3.6-3 5.8-2.2 2.8.9 5.6 1.7 8.5 2.3 2.3.5 3.9 2.5 3.9 4.9v11.9c0 2.7 2.2 5 5 5h15c2.7 0 5-2.2 5-5v-11.9c0-2.3 1.6-4.4 3.9-4.9 2.9-.6 5.7-1.4 8.5-2.3 2.2-.7 4.7.2 5.8 2.2l5.9 10.3c1.4 2.4 4.4 3.2 6.8 1.8l13-7.5c2.4-1.4 3.2-4.4 1.8-6.8l-5.9-10.3c-1.2-2-.8-4.6 1-6.2 2.2-2 4.3-4 6.2-6.2 1.6-1.7 4.1-2.1 6.2-1l10.3 5.9c2.4 1.4 5.4.6 6.8-1.8l7.5-13c1.4-2.4.6-5.4-1.8-6.8l-10.3-5.9c-2-1.2-3-3.6-2.2-5.8.9-2.8 1.7-5.6 2.3-8.5.5-2.3 2.5-3.9 4.9-3.9h11.9c2.7 0 5-2.2 5-5v-15c0-2.7-2.2-5-5-5Zm-95 75C66 162.5 38 134.5 38 100s28-62.5 62.5-62.5S163 65.5 163 100s-28 62.5-62.5 62.5Z" class="cls-1"/></svg>