<svg xmlns="http://www.w3.org/2000/svg" fill="currentColor" viewBox="0 0 251 250.1"><rect width="78.6" height="29.5" x="171.9" y="68.5" class="cls-1" rx="11.1" ry="11.1"/><rect width="91.7" height="29.5" x="152.3" y="107.9" class="cls-1" rx="11.1" ry="11.1"/><rect width="91.7" height="29.5" x="145.7" y="147.3" class="cls-1" rx="11.1" ry="11.1"/><rect width="91.7" height="29.5" x="139.2" y="186.7" class="cls-1" rx="11.1" ry="11.1"/><path d="m207.8 50.8-35.2-31c-5.2-4.6-12.6-6-19.1-3.6L91.7 38.6c-6.9 2.5-13.1 6.5-18.1 11.8l-37.1 44c-1.4 1.5-2.7 3-3.8 4.6s-2.7 3.3-4.5 4.6c-2.8 2.1-5.2 3.7-6.9 4.4-8.2 3.6-20.8 5.1-20.8 5.1v96.3s34.3 3.6 61.7 7.5c8.3 1.2 16.5 9.6 23.9 13.6s14.6 5.6 22.5 5.6h54.5c1.1 0 2.1-.5 2.8-1.3l2.8-3.1c2.1-2.4.4-6.1-2.8-6.1h-20.7c-6.3 0-12.1-3-15.8-8.1l-3.1-4.3c-2.1-2.9-3.8-6.2-5-9.6l-11-32.3c-.6-1.8-.9-3.7-.9-5.6v-3.6c0-4.2 1.5-8.2 4.2-11.4l34.5-39.9c4.9-5.7 8.4-12.5 10.1-19.8l3.4-14.8c1.6-7.1 8.1-17.1 15.5-17.1h27.7c4.4 0 6.5-5.3 3.2-8.2Z" class="cls-1"/></svg>