<svg xmlns="http://www.w3.org/2000/svg" fill="currentColor" viewBox="0 0 251 250.1"><path d="m124.9 146.2 5.9 22.9h12.5c5.5-3.8 19-10.6 46.1-10.6s38.3 7.5 41 10.6H241V47.7l-.3-.8c-.7-1.9-7.7-18.3-51.3-18.3s-49.6 10.2-54.8 14.7V23.6l-.3-.8c-.7-1.9-7.7-18.3-51.3-18.3s-46.5 8.3-53 13.3V6.1C30 2.7 27.3 0 23.9 0h-7.8C12.7 0 10 2.7 10 6.1v238.4c0 3 2.5 5.5 5.5 5.5h9c3 0 5.5-2.5 5.5-5.5v-95.1c1.5 0 2.9-.6 3.9-1.9.1-.1 11.5-13.1 49.2-13.1s41.2 10.6 41.9 11.8Zm9.7-92.9c2 .7 4.3.2 5.6-1.5.1-.1 11.5-13.1 49.2-13.1S229.3 47.6 231 50v107c-7.3-4.3-19.9-8.4-41.6-8.4-34.2 0-49.6 10.2-54.8 14.7v-110ZM30 137.7V29.5c1.5 0 2.9-.6 3.9-1.9.1-.1 11.5-13.1 49.2-13.1s39.9 8.9 41.6 11.3v107c-7.3-4.3-19.9-8.4-41.6-8.4-30.9 0-46.5 8.3-53 13.3Z" class="cls-1"/></svg>