<svg xmlns="http://www.w3.org/2000/svg" fill="currentColor" viewBox="0 0 251 250.5"><path d="M230.5 30h-170c0-16.6-13.4-30-30-30S.5 13.4.5 30v220c0-16.6 13.4-30 30-30s30 13.4 30 30h170c11 0 20-9 20-20V50c0-11-9-20-20-20Zm-180 185.4c-5.9-3.4-12.7-5.4-20-5.4s-14.1 2-20 5.4V30c0-11 9-20 20-20s20 9 20 20v185.4Zm190 14.6c0 5.5-4.5 10-10 10h-160V40h160c5.5 0 10 4.5 10 10v180Z" /><path d="m211.8 112.3-14.4-19.6 23.2-7.2-9-17.9L191.9 82l-7.2-23.2-17.9 9 14.4 19.6-23.2 7.3 9 17.8 19.7-14.4 7.2 23.3 17.9-9.1zM100.5 235.7c-7.3 0-12.2-.4-12.4-.4l1.1-15c.1 0 4.7.3 11.3.3s5.3 0 7.8-.2l.6 15c-2.7.1-5.6.2-8.4.2Zm29.3-2.2-2.5-14.8c7-1.2 12.7-2.9 17-5.1l6.8 13.4c-5.6 2.8-12.7 5-21.2 6.5Zm37.4-27-14.9-2v-1.1c0-1 0-3.2-6.2-6l6.2-13.6c10 4.5 15 11.2 15 19.7v.7c0 .8 0 1.6-.2 2.4Zm-38.8-14.6-.7-.2c-6.7-1.7-13.7-3.4-19.6-5.8l5.8-13.9c4.9 2 11.3 3.6 17.5 5.1l.7.2-3.6 14.6Zm-37.3-26.8c0-4.2 1.2-8.6 3.8-13.5 1.9-3.7 4.1-6.8 6.6-9.4l10.8 10.4c-1.5 1.5-2.9 3.6-4.1 6-1.7 3.3-2.1 5.4-2.1 6.6h-15Zm52.4-13.8c-2.5-.4-4.9-.9-7.3-1.4-4.1-.8-8-1.7-11.6-1.8l.7-15c4.8.2 9.4 1.2 13.9 2.1 2.3.5 4.5.9 6.6 1.3l-2.3 14.8Zm24-4.1-7.1-13.2c5.4-2.9 8.8-6.3 10.2-10l14.1 5.2c-2.7 7.2-8.4 13.3-17.1 18Z" /></svg>