<svg xmlns="http://www.w3.org/2000/svg" fill="currentColor" viewBox="0 0 251 250.1"><path d="m214.2 7.1-3.6-3.6-3.6 3.6-7-7.1-7.1 7.1 7.1 7.1-41.2 41.2-3.6-3.6-15.8 15.8-2.8-2.8-.5-.5-.8-.8c-1.2-1.2-3.1-1.2-4.3 0l-6.1 6.1-14.5-4.2 10.1-10.1 3.6 3.6 14.2-14.2-12.1-12.1L112 46.8l-2.8-2.8 14.2-14.2-6.4-6.4-14.2 14.2 3.6 3.6-62.3 62.3-3.6-3.6-14.2 14.2 6.4 6.4 14.2-14.2 2.8 2.8-14.2 14.2 12.1 12.1 14.2-14.2-3.6-3.6 10.1-10.1 4.2 14.5-8.3 8.3c-1.2 1.2-1.2 3.1 0 4.3l1.3 1.3 8.6-8.6 12.7-12.7L117.4 84l12.7-12.7 2.9-2.9 2.8 2.8-67.5 67.5-17 17-.5 9 105-105 2.8 2.8L50.4 170.7l-.2 3.7 12.4 12.4 17.3-17.3 2.3 37.3s0 9.3 1 15.2c1 5.9 2.7 9.9 3.1 10.7 2.3 4.6 5.4 8.1 9.9 11.3 1.3 1 2.6 1.8 3.9 2.5.3.2.6.3.9.4.3.1.6.3.9.4 10.5 4.6 23.2 2.6 31.7-6l2.1-2.1c5.4-5.4 8.2-12.4 8.4-19.5l-33.3 16.2-1.7-3.6 34.7-16.9c-.2-1.9-.7-3.8-1.3-5.7l-35.8 17.4-1.7-3.6 35.9-17.4c-.8-1.6-1.8-3.1-2.9-4.5v-.2c-.1 0-35.4 17.1-35.4 17.1l-1.7-3.6 34.4-16.7-3.5-4.6-33.3 16.2-1.7-3.6 32.4-15.7-16.5-21.4c4.2-1.1 8.1-3.3 11.3-6.5 9.8-9.8 9.8-25.7 0-35.5-.3-.3-.7-.6-1-.9l14.1-14.1 4.2 4.2c1.6 1.6 4.3 1.6 5.9 0l2.7-2.7-7.1-7.1 2.8-2.8 7.1 7.1 7.8-7.8-7.1-7.1 2.8-2.8 7.1 7.1 7.8-7.8-7.1-7.1 2.8-2.8 7.1 7.1 2.7-2.7c1.6-1.6 1.6-4.3 0-5.9l-4.2-4.2 3.3-3.3-3.6-3.6L224 18l-7.8-7.8-51.9 51.9-2.8-2.8 52.7-52.2ZM48.6 105.5l-1.4-1.4 59.7-59.7 1.4 1.4-59.7 59.7ZM114 80.6l-30.6 30.6-9.3-9.3 30.6-30.6 9.3 9.3Zm3.4 74.9c-3.1 3.1-7.3 4.6-11.4 4.4l-7.1-9.1 17.5-17.5c.3.3.7.6 1 .9 5.9 5.9 5.9 15.4 0 21.3Z" /></svg>