<svg xmlns="http://www.w3.org/2000/svg" fill="currentColor" viewBox="0 0 251 250.5"><path d="M125.5 0C56.5 0 .5 56 .5 125s56 125 125 125 125-56 125-125S194.6 0 125.5 0Zm0 230c-58 0-105-47-105-105s47-105 105-105 105 47 105 105-47 105-105 105Z"/><path d="M127.5 46.6v38.3l32.8 12 6.9 29.8-10.2 7.4 10.2 5.7-7.9 19.6 18.4-3 4 7.7-7.2 12-6.9-4.7-4.3 6.3-13.5 7.7-15.4 29.6 38.4-8.7 27.3-26.6 15.4-40.2-19.4-7 11.9-1.7 5.9-14.9-12.8-27-32.9-14.3 3.3-25.6-29.6-14-14.4 11.6zM93.3 68.6l-13.8-13-28.9 8.7-15.1 21.6 28.9 22.6 6.3-9-6.3-8.9 13.5-4.7 2.3-15 13.1-2.3z"/><path d="m90.7 118.8-14.5 15.7-26.6-4-12.8 26.1 25.3 27.8 36.2 23.3 26.6-26.3-21.4-.7-15.1-5.6-15.8-16.3 14.2 4.5 11.5 11.1 16-1.7 13.2-13.6-3.6-18.6 14.4-18.7-6.5-9.3-4.3 11-16.8 8-7.5-8.3-12.5-4.4z"/></svg>