<svg xmlns="http://www.w3.org/2000/svg" viewBox="0 0 20 20"><path fill="currentColor" fill-rule="evenodd" d="M12 10.078a.999.999 0 0 1 2 0 .999.999 0 0 1-2 0Zm.75 2.94L16 16.956H4l4.518-5.931 2.836 4.041 1.396-2.046ZM4 6.983V4.987c0-.55.448-.997 1-.997h4c.552 0 1 .446 1 .997v1.995a.998.998 0 0 1-1 .997H5c-.552 0-1-.446-1-.997ZM18 17.06c0 .55-.448.893-1 .893H3c-.552 0-1-.342-1-.893V3.097c0-.55.448-1.102 1-1.102h9v4.094c0 1.101.895 1.89 2 1.89h4v9.081Zm1.707-11.29L14.293.345C14.105.158 13.851 0 13.586 0H2v.053c-1.105 0-2 .919-2 2.02v15.984C0 19.158.895 20 2 20v-.053h16V20c1.105 0 2-.868 2-1.969V6.502c0-.264-.105-.545-.293-.731Z"/></svg>