<svg xmlns="http://www.w3.org/2000/svg" fill="none" viewBox="0 0 24 24"><path stroke="currentColor" stroke-linecap="round" stroke-linejoin="round" stroke-width="2" d="M13 4H8.8c-1.68 0-2.52 0-3.162.327a3 3 0 0 0-1.311 1.311C4 6.28 4 7.12 4 8.8v6.4c0 1.68 0 2.52.327 3.162a3 3 0 0 0 1.311 1.311C6.28 20 7.12 20 8.8 20h6.4c1.68 0 2.52 0 3.162-.327a3 3 0 0 0 1.311-1.311C20 17.72 20 16.88 20 15.2V11"/><path stroke="#000" stroke-linecap="round" stroke-linejoin="round" stroke-width="2" d="m4 16 4.293-4.293a1 1 0 0 1 1.414 0L13 15m0 0 2.793-2.793a1 1 0 0 1 1.414 0L20 15m-7 0 2.25 2.25M18 8V3m0 0-2 2m2-2 2 2"/></svg>