<?xml version="1.0" standalone="no"?>
<!DOCTYPE svg PUBLIC "-//W3C//DTD SVG 20010904//EN"
 "http://www.w3.org/TR/2001/REC-SVG-20010904/DTD/svg10.dtd">
<svg version="1.0" xmlns="http://www.w3.org/2000/svg"
 width="260.000000pt" height="260.000000pt" viewBox="0 0 260.000000 260.000000"
 preserveAspectRatio="xMidYMid meet">
<metadata>
Created by potrace 1.14, written by Peter Selinger 2001-2017
</metadata>
<g transform="translate(0.000000,260.000000) scale(0.100000,-0.100000)"
fill="#000000" stroke="none">
<path d="M0 1300 l0 -1300 1300 0 1300 0 0 1300 0 1300 -1300 0 -1300 0 0
-1300z m1895 1253 c-23 -60 -93 -395 -120 -575 -21 -137 -20 -154 14 -197 82
-103 148 -275 158 -408 l6 -83 148 0 149 0 0 83 c1 232 39 578 95 842 33 162
80 343 90 353 16 16 13 -16 -9 -94 -91 -330 -156 -782 -156 -1101 l0 -83 153
-2 152 -2 -152 -3 -153 -4 0 -72 c0 -102 26 -412 45 -542 26 -182 79 -429 131
-613 4 -13 2 -22 -4 -22 -26 0 -116 401 -152 675 -21 162 -40 398 -40 508 l0
68 -147 -3 -148 -3 -6 -75 c-12 -148 -72 -305 -159 -418 -24 -32 -40 -63 -40
-80 0 -53 51 -370 83 -519 29 -132 33 -177 13 -145 -18 29 -106 530 -121 687
-12 122 -25 360 -25 451 l0 104 -506 0 -507 0 6 -60 c11 -129 102 -254 227
-314 61 -29 72 -31 175 -31 103 0 114 2 175 31 78 37 147 103 186 178 16 30
30 53 32 51 10 -9 -56 -114 -99 -157 -160 -160 -428 -160 -589 2 -55 54 -108
153 -116 216 -13 93 11 84 -209 84 l-195 0 0 -57 c0 -231 158 -501 371 -639
148 -96 278 -134 459 -134 218 0 405 70 552 206 51 48 76 60 37 18 -44 -47
-142 -115 -223 -154 -216 -105 -494 -109 -709 -11 -278 126 -471 394 -496 691
l-6 75 -120 5 -120 6 123 2 122 2 0 53 c0 117 58 287 141 408 158 235 414 370
699 370 218 0 389 -65 562 -213 31 -26 59 -48 61 -48 3 0 10 39 17 88 16 117
66 374 96 497 31 125 31 125 45 125 7 0 8 -7 4 -17z"/>
<path d="M909 2090 c-248 -61 -461 -241 -565 -477 -33 -74 -64 -205 -64 -270
l0 -53 199 0 198 0 5 49 c7 71 58 172 118 231 156 157 412 162 580 12 39 -34
112 -142 96 -142 -3 0 -14 17 -25 38 -30 58 -107 129 -180 165 -62 30 -72 32
-176 32 -104 0 -114 -2 -176 -32 -121 -60 -211 -180 -226 -302 l-6 -51 505 0
505 0 6 138 c4 75 12 199 19 274 l11 137 -39 37 c-113 106 -248 181 -384 214
-112 26 -293 27 -401 0z"/>
<path d="M1746 1748 c-9 -76 -26 -333 -26 -400 l0 -58 110 0 110 0 0 48 c0 59
-23 167 -50 240 -28 73 -116 222 -132 222 -3 0 -9 -24 -12 -52z"/>
<path d="M1723 1093 c8 -227 17 -343 28 -343 12 0 95 129 122 192 36 80 67
212 67 280 l0 58 -112 0 -111 0 6 -187z"/>
</g>
</svg>
